<svg height="800" viewBox="0 0 779 800" width="779" xmlns="http://www.w3.org/2000/svg"><path d="m192.876739 293.337061 184.033623 485.251401c.979224 2.581973-.32006 5.468893-2.902033 6.448116-.374961.142206-.765668.238785-1.1637.287657l-114.41253 14.047963c-2.740841.336528-5.235542-1.61255-5.572075-4.35339l-61.571921-501.465947c-.048212-.392654.231014-.750046.623667-.798258.417412-.051252.81584.189241.964969.582458zm335.49635-46.316412 62.193937 506.533159c.33653 2.740841-1.612549 5.235543-4.35339 5.572073l-114.427415 14.04979c-2.740841.33653-5.235543-1.612549-5.572073-4.35339-.048405-.394233-.049662-.792829-.003745-1.187359l60.57066-520.439146c.048592-.417517.376568-.747569.793769-.798794.392654-.048212.750046.231013.798257.623666zm-457.848327-72.993045 61.407698 500.122862c.201921 1.644504-.967524 3.141327-2.612028 3.343248-.919066.112848-1.838742-.20504-2.491948-.861347l-123.82790294-124.415726c-2.10283871-2.112821-3.1534583-5.053619-2.86541245-8.0206l33.66602159-346.772678c.2925142-3.013006 1.9341291-5.731331 4.4645806-7.392832l27.6347659-18.145055c1.3849856-.909385 3.2449404-.523835 4.1543253.861151.2529444.385232.413736.82356.4699 1.280977zm550.569588-71.382277 35.729273 12.504019c1.428646.499977 2.553908 1.620206 3.060284 3.046597l117.35871 330.583272c.997273 2.80918.689295 5.91681-.839964 8.475602l-91.850387 153.686142c-.849985 1.422214-2.691965 1.886097-4.114179 1.036112-.79483-.475029-1.32576-1.290479-1.438605-2.20954l-61.873736-503.924994c-.201918-1.644504.967529-3.141325 2.612034-3.343244.457404-.056161.921598-.006191 1.35657.146034zm-288.706403-101.03220846 113.619365 39.76099066c2.180021.7628962 3.553814 2.9196963 3.323552 5.2178435l-50.703348 506.0491113c-.041757.416756-.366654.748984-.782374.800028-.416853.051183-.814352-.190401-.960889-.58399l-177.601878-477.0264109c-.813824-2.1858771-.008186-4.6440598 1.941583-5.9242043l102.372526-67.21391712c2.602652-1.7088028 5.852725-2.10785981 8.791463-1.07945114z" fill="#090f29" fill-rule="evenodd"/></svg>